<svg xmlns="http://www.w3.org/2000/svg" xmlns:xlink="http://www.w3.org/1999/xlink"><defs><style>
    .sprite-symbol-usage {display: none;}
    .sprite-symbol-usage:target {display: inline;}
  </style><symbol viewBox="0 0 10 19" id="facebook"><path d="m9.345 10.688.519-3.439H6.621V5.018A1.7 1.7 0 0 1 8.526 3.16H10V.232A17.673 17.673 0 0 0 7.383 0c-2.67 0-4.415 1.647-4.415 4.628v2.621H0v3.439h2.968V19h3.653v-8.312Z" /></symbol><symbol viewBox="0 0 7 15" id="light"><path d="M6.978 6.958a.213.213 0 0 0-.184-.114l-2.975-.072L6.311.275a.2.2 0 0 0-.1-.254.215.215 0 0 0-.277.079L.033 9.169a.2.2 0 0 0 0 .215.213.213 0 0 0 .2.1l2.933-.227-2.39 5.46a.2.2 0 0 0 .091.258.218.218 0 0 0 .1.027.213.213 0 0 0 .171-.085l5.821-7.748a.2.2 0 0 0 .019-.211" /></symbol><symbol viewBox="0 0 16 16" id="play"><path fill="currentColor" d="M8 1c3.9 0 7 3.1 7 7s-3.1 7-7 7-7-3.1-7-7 3.1-7 7-7zm0-1C3.6 0 0 3.6 0 8s3.6 8 8 8 8-3.6 8-8-3.6-8-8-8z" /><path fill="currentColor" d="M6 4v8l6-4z" /></symbol><symbol viewBox="0 0 169.142 73.048" id="rss"><path d="M109.473 21.241h-6.055a17.229 17.229 0 0 0-.822-5.44 14.217 14.217 0 0 0-4.158-6.254 16.896 16.896 0 0 0-7.336-3.744q-2.761-.675-6.043-.675a29.73 29.73 0 0 0-5.214.43q-4.602.82-7.775 3.207-4.823 3.63-4.834 9.471a14.126 14.126 0 0 0 0 .026 10.615 10.615 0 0 0 3.447 8.067 13.486 13.486 0 0 0 .899.771 21.477 21.477 0 0 0 3.226 2.058q3.532 1.871 8.888 3.46a85.125 85.125 0 0 0 1.802.513 113.005 113.005 0 0 1 5.401 1.61q5.672 1.857 9.101 3.81 4.932 2.807 7.422 6.713a15.789 15.789 0 0 1 2.293 6.347 20.453 20.453 0 0 1 .197 2.882q0 8.12-6.275 13.136a20.749 20.749 0 0 1-.439.34q-6.714 5.079-17.7 5.079a36.673 36.673 0 0 1-9.123-1.103 32.039 32.039 0 0 1-4.671-1.583 24.627 24.627 0 0 1-5.065-2.875 19.001 19.001 0 0 1-4.456-4.644q-3.247-4.834-3.247-11.084h6.005a16.153 16.153 0 0 0 .918 5.561 13.888 13.888 0 0 0 4.698 6.304q5.039 3.9 13.067 4.3a37.665 37.665 0 0 0 1.874.045 30.614 30.614 0 0 0 5.488-.462q4.601-.839 7.842-3.2 5.029-3.662 5.029-9.716a13.544 13.544 0 0 0-.633-4.24 10.983 10.983 0 0 0-3.517-5.111 18.413 18.413 0 0 0-2.879-1.909q-3.179-1.748-8.235-3.402a100.85 100.85 0 0 0-4.072-1.232 98.71 98.71 0 0 1-5.736-1.788q-6.727-2.343-10.377-4.975a18.436 18.436 0 0 1-4.508-4.485 15.61 15.61 0 0 1-2.718-9.089 15.659 15.659 0 0 1 5.14-11.933 20.331 20.331 0 0 1 1.574-1.324Q74.609.001 85.059.001a31.489 31.489 0 0 1 7.102.771 25.889 25.889 0 0 1 5.568 1.963 21.81 21.81 0 0 1 5.944 4.194 19.816 19.816 0 0 1 2.723 3.423 20.008 20.008 0 0 1 3.077 10.889Zm59.228 0h-6.055a17.229 17.229 0 0 0-.821-5.44 14.217 14.217 0 0 0-4.159-6.254 16.896 16.896 0 0 0-7.336-3.744q-2.76-.675-6.043-.675a29.73 29.73 0 0 0-5.214.43q-4.602.82-7.774 3.207-4.823 3.63-4.834 9.471a14.126 14.126 0 0 0 0 .026 10.615 10.615 0 0 0 3.447 8.067 13.486 13.486 0 0 0 .899.771 21.477 21.477 0 0 0 3.226 2.058q3.532 1.871 8.888 3.46a85.125 85.125 0 0 0 1.802.513 113.005 113.005 0 0 1 5.401 1.61q5.671 1.857 9.101 3.81 4.931 2.807 7.421 6.713a15.789 15.789 0 0 1 2.294 6.347 20.453 20.453 0 0 1 .197 2.882q0 8.12-6.276 13.136a20.749 20.749 0 0 1-.438.34q-6.714 5.079-17.7 5.079a36.673 36.673 0 0 1-9.124-1.103 32.039 32.039 0 0 1-4.67-1.583 24.627 24.627 0 0 1-5.065-2.875 19.001 19.001 0 0 1-4.457-4.644q-3.247-4.834-3.247-11.084h6.006a16.153 16.153 0 0 0 .918 5.561 13.888 13.888 0 0 0 4.697 6.304q5.04 3.9 13.068 4.3a37.665 37.665 0 0 0 1.874.045 30.614 30.614 0 0 0 5.488-.462q4.6-.839 7.842-3.2 5.029-3.662 5.029-9.716a13.544 13.544 0 0 0-.633-4.24 10.983 10.983 0 0 0-3.517-5.111 18.413 18.413 0 0 0-2.88-1.909q-3.178-1.748-8.234-3.402a100.85 100.85 0 0 0-4.072-1.232 98.71 98.71 0 0 1-5.736-1.788q-6.727-2.343-10.377-4.975a18.436 18.436 0 0 1-4.509-4.485 15.61 15.61 0 0 1-2.718-9.089 15.659 15.659 0 0 1 5.14-11.933 20.331 20.331 0 0 1 1.574-1.324Q133.838.001 144.287.001a31.489 31.489 0 0 1 7.102.771 25.889 25.889 0 0 1 5.569 1.963 21.81 21.81 0 0 1 5.943 4.194 19.816 19.816 0 0 1 2.724 3.423 20.008 20.008 0 0 1 3.076 10.889ZM43.896 72.071l-17.187-29.59H6.055v29.59H0V.977h23.096q11.377 0 17.773 5.518a18.024 18.024 0 0 1 6.045 11.025 26.457 26.457 0 0 1 .352 4.405q0 6.836-4.004 12.06-4.004 5.225-10.742 7.227l17.773 30.224v.635h-6.397ZM6.055 6.104v31.25h18.408q7.568 0 12.158-4.297a14.288 14.288 0 0 0 4.55-9.873 19.351 19.351 0 0 0 .04-1.259 18.944 18.944 0 0 0-.591-4.871 13.297 13.297 0 0 0-4.194-6.799 15.821 15.821 0 0 0-5.934-3.169q-2.365-.706-5.202-.904a32.856 32.856 0 0 0-2.292-.078H6.055Z" vector-effect="non-scaling-stroke" font-size="12" stroke-width=".945" style="stroke-width:.25mm" /></symbol><symbol viewBox="0 0 168.263 73.049" id="rss_footer"><path d="M108.789 21.534h-9.424a16.286 16.286 0 0 0-.553-4.361 11.848 11.848 0 0 0-3.548-5.771 13.451 13.451 0 0 0-5.217-2.849q-2.053-.615-4.518-.778a27.804 27.804 0 0 0-1.838-.059q-6.933 0-10.815 3.051a9.916 9.916 0 0 0-3.832 7.275 14.08 14.08 0 0 0-.05 1.197 8.951 8.951 0 0 0 2.976 6.725 12.603 12.603 0 0 0 .711.624q3.109 2.533 9.9 4.701a78.891 78.891 0 0 0 2.648.792q5.793 1.627 9.937 3.474a36.633 36.633 0 0 1 3.931 2.019 26.017 26.017 0 0 1 3.762 2.712q2.112 1.849 3.47 3.989a16.107 16.107 0 0 1 .19.306 16.649 16.649 0 0 1 2.181 6.175 21.644 21.644 0 0 1 .236 3.249q0 8.642-6.739 13.843-6.738 5.2-18.017 5.2-7.325 0-13.672-2.808a26.476 26.476 0 0 1-5.313-3.088 20.817 20.817 0 0 1-4.477-4.602 18.768 18.768 0 0 1-3.443-11.084h9.424a14.01 14.01 0 0 0 .771 4.747 11.929 11.929 0 0 0 3.99 5.433 16.542 16.542 0 0 0 5.961 2.915q3.028.821 6.759.821a29.197 29.197 0 0 0 4.3-.296q4.358-.65 7.077-2.732a9.653 9.653 0 0 0 3.893-6.98 12.794 12.794 0 0 0 .062-1.272 11.931 11.931 0 0 0-.473-3.449 9.062 9.062 0 0 0-3.189-4.632 17.328 17.328 0 0 0-2.49-1.578q-2.784-1.486-7.202-2.952a97.523 97.523 0 0 0-3.59-1.109 76.133 76.133 0 0 1-6.582-2.199q-7.109-2.768-10.971-6.322a16.667 16.667 0 0 1-4.479-6.534 17.047 17.047 0 0 1-1.015-5.941q0-8.399 6.714-13.892A23.562 23.562 0 0 1 76.129.79a34.301 34.301 0 0 1 7.562-.789A32.365 32.365 0 0 1 91.026.8a26.353 26.353 0 0 1 5.727 2.033 22.784 22.784 0 0 1 5.901 4.12 20.38 20.38 0 0 1 2.986 3.692 19.977 19.977 0 0 1 3.149 10.889Zm59.326 0h-9.424a16.286 16.286 0 0 0-.553-4.361 11.848 11.848 0 0 0-3.548-5.771 13.451 13.451 0 0 0-5.217-2.849q-2.053-.615-4.518-.778a27.804 27.804 0 0 0-1.837-.059q-6.934 0-10.816 3.051a9.916 9.916 0 0 0-3.832 7.275 14.08 14.08 0 0 0-.05 1.197 8.951 8.951 0 0 0 2.976 6.725 12.603 12.603 0 0 0 .711.624q3.109 2.533 9.901 4.701a78.891 78.891 0 0 0 2.648.792q5.792 1.627 9.936 3.474a36.633 36.633 0 0 1 3.931 2.019 26.017 26.017 0 0 1 3.762 2.712q2.112 1.849 3.47 3.989a16.107 16.107 0 0 1 .19.306 16.649 16.649 0 0 1 2.181 6.175 21.644 21.644 0 0 1 .236 3.249q0 8.642-6.739 13.843-6.738 5.2-18.017 5.2-7.324 0-13.672-2.808a26.476 26.476 0 0 1-5.313-3.088 20.817 20.817 0 0 1-4.477-4.602 18.768 18.768 0 0 1-3.442-11.084h9.423a14.01 14.01 0 0 0 .771 4.747 11.929 11.929 0 0 0 3.99 5.433 16.542 16.542 0 0 0 5.961 2.915q3.028.821 6.759.821a29.197 29.197 0 0 0 4.3-.296q4.358-.65 7.077-2.732a9.653 9.653 0 0 0 3.893-6.98 12.794 12.794 0 0 0 .062-1.272 11.931 11.931 0 0 0-.473-3.449 9.062 9.062 0 0 0-3.189-4.632 17.328 17.328 0 0 0-2.49-1.578q-2.783-1.486-7.202-2.952a97.523 97.523 0 0 0-3.589-1.109 76.133 76.133 0 0 1-6.583-2.199q-7.109-2.768-10.971-6.322a16.667 16.667 0 0 1-4.479-6.534 17.047 17.047 0 0 1-1.014-5.941q0-8.399 6.714-13.892A23.562 23.562 0 0 1 135.455.79a34.301 34.301 0 0 1 7.563-.789 32.365 32.365 0 0 1 7.334.799 26.353 26.353 0 0 1 5.727 2.033 22.784 22.784 0 0 1 5.901 4.12 20.38 20.38 0 0 1 2.986 3.692 19.977 19.977 0 0 1 3.149 10.889ZM41.553 72.071l-15.43-28.76H9.424v28.76H0V.977h23.535a42.321 42.321 0 0 1 7.127.562q3.805.651 6.844 2.057a19.874 19.874 0 0 1 4.511 2.85 17.646 17.646 0 0 1 5.838 9.874 27.252 27.252 0 0 1 .631 6.044 20.706 20.706 0 0 1-1.013 6.574 18.222 18.222 0 0 1-2.576 4.998 20.539 20.539 0 0 1-7.321 6.186 26.027 26.027 0 0 1-2.664 1.187l16.699 30.176v.586H41.553ZM9.424 8.692v26.953h14.404a21.848 21.848 0 0 0 4.627-.461q2.992-.649 5.265-2.207a13.041 13.041 0 0 0 1.217-.945 11.876 11.876 0 0 0 4.061-8.192 16.513 16.513 0 0 0 .064-1.476q.001-6.027-3.286-9.483a11.111 11.111 0 0 0-.644-.624 12.799 12.799 0 0 0-4.627-2.593q-1.902-.621-4.204-.845a27.89 27.89 0 0 0-2.522-.127H9.424Z" vector-effect="non-scaling-stroke" stroke-linecap="round" font-size="12" stroke-width=".945" /></symbol><symbol viewBox="0 0 17.49 17.491" id="search"><path d="M6.5 0A6.507 6.507 0 0 0 0 6.5 6.507 6.507 0 0 0 6.5 13a6.5 6.5 0 0 0 4.226-1.566l.274.274v.792l5 4.991L17.49 16l-4.988-5h-.794l-.276-.275A6.494 6.494 0 0 0 13 6.5 6.507 6.507 0 0 0 6.5 0Zm0 11A4.505 4.505 0 0 1 2 6.5 4.505 4.505 0 0 1 6.5 2 4.505 4.505 0 0 1 11 6.5 4.505 4.505 0 0 1 6.5 11Z" /></symbol><symbol viewBox="0 0 20 16" id="twitter"><path d="M17.944 3.987c.013.175.013.35.013.525A11.491 11.491 0 0 1 6.294 16 11.712 11.712 0 0 1 0 14.188a8.608 8.608 0 0 0 .99.05 8.289 8.289 0 0 0 5.089-1.725 4.1 4.1 0 0 1-3.833-2.8 5.246 5.246 0 0 0 .774.062 4.4 4.4 0 0 0 1.08-.137A4.054 4.054 0 0 1 .812 5.675v-.05a4.176 4.176 0 0 0 1.853.512A4.019 4.019 0 0 1 .838 2.775 3.961 3.961 0 0 1 1.4.737a11.711 11.711 0 0 0 8.448 4.225 4.492 4.492 0 0 1-.1-.925A4.067 4.067 0 0 1 13.845 0a4.118 4.118 0 0 1 2.995 1.275A8.145 8.145 0 0 0 19.442.3a4.038 4.038 0 0 1-1.8 2.225A8.316 8.316 0 0 0 20 1.9a8.74 8.74 0 0 1-2.056 2.087Z" /></symbol><symbol viewBox="0 0 20 14" id="youtube"><path d="M2.186 13.581a2.471 2.471 0 0 1-1.768-1.743A26.152 26.152 0 0 1 0 7.014a26.144 26.144 0 0 1 .418-4.823A2.509 2.509 0 0 1 2.186.419C3.746 0 10 0 10 0s6.254 0 7.814.419a2.509 2.509 0 0 1 1.769 1.772A26.144 26.144 0 0 1 20 7.014a26.152 26.152 0 0 1-.418 4.824 2.471 2.471 0 0 1-1.769 1.743C16.254 14 10 14 10 14s-6.254 0-7.814-.419Z" /></symbol></defs><use id="facebook-usage" xlink:href="#facebook" class="sprite-symbol-usage" /><use id="light-usage" xlink:href="#light" class="sprite-symbol-usage" /><use id="play-usage" xlink:href="#play" class="sprite-symbol-usage" /><use id="rss-usage" xlink:href="#rss" class="sprite-symbol-usage" /><use id="rss_footer-usage" xlink:href="#rss_footer" class="sprite-symbol-usage" /><use id="search-usage" xlink:href="#search" class="sprite-symbol-usage" /><use id="twitter-usage" xlink:href="#twitter" class="sprite-symbol-usage" /><use id="youtube-usage" xlink:href="#youtube" class="sprite-symbol-usage" /></svg>